# xmcd
#
# Track frame offsets:
# 150
# 10697
# 22272
# 33777
# 45457
# 55845
# 67247
# 78125
# 109840
# 123552
# 137105
#
# Disc length: 2067 seconds
#
#
# Revision: 2
# Processed by: cddbd v1.5PL3 Copyright (c) Steve Scherf et al.
# Submitted via: FreeRIP 2.53 
#
DISCID=8f08110b
DTITLE=Paulinho da Viola and Elton Medeiros - Samba na Madrugada
DYEAR=1900
DGENRE=
TTITLE0=Arvoredo
TTITLE1=Maioria sem Nenhum
TTITLE2=14 Anos
TTITLE3=Sofreguidão
TTITLE4=Momento de Fraqueza
TTITLE5=Minha Cofissão
TTITLE6=Perfeito Amor
TTITLE7=Mascarada
TTITLE8=Depois de Tanto Amor
TTITLE9=Samba Original
TTITLE10=Alô Alô
EXTD=
EXTT0=
EXTT1=
EXTT2=
EXTT3=
EXTT4=
EXTT5=
EXTT6=
EXTT7=
EXTT8=
EXTT9=
EXTT10=
PLAYORDER=
